<?xml version="1.0" encoding="utf-8"?>
<!-- Generator: Adobe Illustrator 22.0.1, SVG Export Plug-In . SVG Version: 6.00 Build 0)  -->
<svg version="1.1" xmlns="http://www.w3.org/2000/svg" xmlns:xlink="http://www.w3.org/1999/xlink" x="0px" y="0px"
	 viewBox="0 0 305 175" style="enable-background:new 0 0 305 175;" xml:space="preserve">
<style type="text/css">
	.st0{fill:#FFF000;stroke:#2A9F94;stroke-width:1.9843;stroke-linecap:round;stroke-linejoin:round;stroke-miterlimit:10;}
	.st1{fill:#F5F5F5;stroke:#28A69B;stroke-width:1.9843;stroke-linecap:round;stroke-linejoin:round;stroke-miterlimit:10;}
	.st2{fill:#C7D890;stroke:#28A69B;stroke-width:1.9843;stroke-linecap:round;stroke-linejoin:round;stroke-miterlimit:10;}
	.st3{fill:#F5B9B3;stroke:#28A69B;stroke-width:1.9843;stroke-linecap:round;stroke-linejoin:round;stroke-miterlimit:10;}
	.st4{fill:none;stroke:#28A69B;stroke-width:1.9843;stroke-linecap:round;stroke-linejoin:round;stroke-miterlimit:10;}
	.st5{fill:none;stroke:#2A9F94;stroke-width:1.9843;stroke-linecap:round;stroke-linejoin:round;stroke-miterlimit:10;}
	.st6{fill:#7AC6BA;stroke:#28A69B;stroke-width:1.9843;stroke-linecap:round;stroke-linejoin:round;stroke-miterlimit:10;}
	.st7{fill:#D8CA9E;stroke:#28A69B;stroke-width:1.9843;stroke-linecap:round;stroke-linejoin:round;stroke-miterlimit:10;}
	.st8{enable-background:new    ;}
	.st9{fill:#F0A799;}
	.st10{fill:#25B0A3;}
	.st11{display:none;}
	
		.st12{display:inline;fill:#F5F5F5;stroke:#2C9E93;stroke-width:1.9843;stroke-linecap:round;stroke-linejoin:round;stroke-miterlimit:10;}
	.st13{display:inline;}
	.st14{fill:#F5F5F5;stroke:#2C9E93;stroke-width:1.9843;stroke-linecap:round;stroke-linejoin:round;stroke-miterlimit:10;}
	
		.st15{display:inline;fill:#F5B9B3;stroke:#28A69B;stroke-width:1.9843;stroke-linecap:round;stroke-linejoin:round;stroke-miterlimit:10;}
	
		.st16{display:inline;fill:#F5F5F5;stroke:#28A69B;stroke-width:1.9843;stroke-linecap:round;stroke-linejoin:round;stroke-miterlimit:10;}
	
		.st17{display:inline;fill:none;stroke:#28A69B;stroke-width:1.9843;stroke-linecap:round;stroke-linejoin:round;stroke-miterlimit:10;}
</style>
<g id="레이어_1">
	<g>
		<path class="st0" d="M218.4,100.8c0-0.6,0.1-97.6,0.1-97.6L104.7,24.3c0,0,1.1,75.7,1.1,76.3L218.4,100.8"/>
		<polyline class="st1" points="164.4,128.9 107.7,112.7 207.1,93.1 268.8,109.1 164.4,128.9 		"/>
		<g>
			<polyline class="st2" points="164.4,119.3 107.7,103.2 207.1,83.6 268.8,99.5 164.4,119.3 			"/>
			<polyline class="st0" points="164.4,128.7 164.2,119.4 268.8,99.7 268.8,108.9 			"/>
			<line class="st2" x1="164.4" y1="128.7" x2="268.8" y2="108.9"/>
		</g>
		<g>
			<path class="st3" d="M21.4,115.9c0,4.6-2.1,8.3-4.7,8.3c-2.6,0-4.7-3.7-4.7-8.3s2.1-8.3,4.7-8.3
				C19.3,107.6,21.4,111.3,21.4,115.9z"/>
			<path class="st0" d="M17.8,116.4c0,4.6-2.1,8.3-4.7,8.3c-2.6,0-4.7-3.7-4.7-8.3c0-4.6,2.1-8.3,4.7-8.3
				C15.7,108.1,17.8,111.8,17.8,116.4z"/>
		</g>
		<path class="st3" d="M105.6,147.2"/>
		<polygon class="st1" points="164.5,116.3 104.6,100.3 104.6,24.3 164.3,40.8 		"/>
		<path class="st0" d="M268.8,96.6c0-0.6,0-74.7,0-74.7L164.4,40.5c0,0,0,75.4,0,76L268.8,96.6"/>
		<path class="st4" d="M207.1,120.3c0,0,4-9.4,15.5-13"/>
		<g>
			<line class="st5" x1="131.9" y1="19.4" x2="131.9" y2="31.3"/>
			<line class="st5" x1="114.8" y1="22.6" x2="114.8" y2="26.3"/>
			<line class="st5" x1="149.5" y1="15.9" x2="149.5" y2="36.3"/>
			<line class="st5" x1="167.1" y1="13.9" x2="167.1" y2="39.1"/>
			<line class="st5" x1="184.7" y1="10.5" x2="184.7" y2="35.5"/>
			<line class="st5" x1="202.3" y1="6.3" x2="202.3" y2="32.4"/>
		</g>
		<path class="st0" d="M68.9,159.6L61.8,129l47.2-15.8c0,0,1.8-24.5,8.9-32.1c10.3-11.1,40.6-12.6,40.6-12.6l-0.2,62.1l-23.8,5.3
			c0,0-0.3,3.9-1.4,3.2c-5.8-4-16-11.4-27.6-3.2c-5.3,3.7-7.8,11.8-8.8,17.5L68.9,159.6z"/>
		<path class="st3" d="M117.6,110.3c0,0,1.6-20.2,5.6-24c7.9-7.6,28.8-9.1,28.8-9.1l0.1,24.6L117.6,110.3z"/>
		<path class="st1" d="M6.3,142.5c0,0-1.9-18,1.2-22.4C15.1,109.3,48.9,96,48.9,96s4.8-23.7,10.9-29.1c10.6-9.5,46.9-12.1,46.9-12.1
			l51.8,13.6c0,0-29.8,2.7-40.6,12.6c-6.1,5.7-8.9,32.1-8.9,32.1s-28.5,7.9-39,24.6c-2.9,4.6-1,21.8-1,21.8L6.3,142.5z"/>
		<line class="st3" x1="110.6" y1="127.5" x2="124.5" y2="132.1"/>
		<path class="st6" d="M63.1,70.5c-5.5,3.2-9.7,23.9-9.7,23.9l50.9,13.7c0,0,1.9-20.1,6.5-26L63.1,70.5z"/>
		<line class="st4" x1="53.7" y1="100.2" x2="93.5" y2="110.4"/>
		<line class="st4" x1="32.3" y1="128.9" x2="52.3" y2="134.5"/>
		<path class="st6" d="M139.9,143.4l-13-3.9c0,0,2.5-12.9-10.8-13.8c-0.1,0,10.6-0.8,17.7,5.8C139.7,137.1,139.9,143.4,139.9,143.4z
			"/>
		<line class="st4" x1="59.7" y1="136.8" x2="66.6" y2="138.7"/>
		<line class="st4" x1="10.2" y1="122.7" x2="26.1" y2="127.2"/>
		<polyline class="st0" points="61.6,145.6 2.6,129.1 2.6,147.1 61.6,163.8 61.6,145.6 		"/>
		<polygon class="st1" points="18.5,142.6 18.5,155.3 39,161 39,148.3 		"/>
		<path class="st4" d="M15.1,132.1c0.3-4,0.8-7.9,2.1-9.7c7.6-10.8,36.5-22.2,36.5-22.2"/>
		<path class="st4" d="M54.9,143c0.3-4,0.8-8,2.1-9.8c7.6-10.8,36.5-22.8,36.5-22.8"/>
		<line class="st1" x1="6.5" y1="134.4" x2="58.1" y2="148.6"/>
		<line class="st1" x1="61.6" y1="163.8" x2="70.9" y2="161.7"/>
		<path class="st1" d="M151.7,112.9l-7.8,1.7c-1,0.2-2-0.4-2.2-1.4l0,0c-0.2-1,0.4-2,1.4-2.2l7.8-1.7c1-0.2,2,0.4,2.2,1.4l0,0
			C153.3,111.6,152.7,112.6,151.7,112.9z"/>
		<path class="st5" d="M118.2,115.2c0,0,21.8-0.4,27.2,14.1"/>
		<line class="st0" x1="71.6" y1="65.9" x2="114.2" y2="77.3"/>
		<line class="st0" x1="108" y1="60.7" x2="137.2" y2="69"/>
		<line class="st5" x1="115.1" y1="26.8" x2="115.1" y2="55.6"/>
		<line class="st5" x1="127.4" y1="30.9" x2="127.4" y2="58.7"/>
		<line class="st5" x1="139.7" y1="34.2" x2="139.7" y2="62"/>
		<line class="st5" x1="152" y1="38.6" x2="152" y2="66.4"/>
		<polygon class="st0" points="248.1,21.5 248.1,25.4 164.2,40.5 124.1,28.9 124.1,24.7 203.8,10.1 		"/>
		<polygon class="st7" points="124.3,24.7 164.4,36 247.7,21.1 203.8,10.1 		"/>
		<line class="st5" x1="164.3" y1="40.8" x2="164.3" y2="36.3"/>
		<line class="st4" x1="152.1" y1="20" x2="190.9" y2="31"/>
		<line class="st4" x1="179.7" y1="14.5" x2="218.5" y2="25.5"/>
		<g class="st8">
			<g>
				<path class="st9" d="M246.6,66.7C246.6,66.7,246.6,66.7,246.6,66.7l-2.5,0.4l-0.5,0.1c-0.5,0.1-0.8,0.5-1.1,1
					c-0.1,0.2-0.1,0.4-0.1,0.7l0,7.8c0,0.8,0.7,1.3,1.4,1.3c0,0,0,0,0,0c0.7-0.1,1.4-0.9,1.4-1.7l0-6.3l1.3-0.2
					c0.6-0.1,1.2-0.9,1.2-1.7C247.7,67.3,247.2,66.6,246.6,66.7"/>
				<path class="st9" d="M244.9,79.2C244.8,79.2,244.8,79.2,244.9,79.2l-12,2l-0.6,0.1c-0.2,0-0.4,0.1-0.5,0.3
					c-0.4,0.3-0.6,0.8-0.6,1.3l0,6.2c0,0.5,0.2,0.9,0.6,1.1c0.2,0.1,0.4,0.2,0.6,0.1l0.5-0.1l12-2c0.6-0.1,1.1-0.7,1.1-1.3
					c0-0.7-0.5-1-1-0.9c0,0,0,0,0,0L234,87.8l0-1.1l10.3-1.7c0.6-0.1,1.1-0.6,1.1-1.3c0-0.7-0.5-1.1-1-1c0,0,0,0,0,0L234,84.4l0-1.1
					l10.8-1.8c0.6-0.1,1.1-0.6,1.1-1.3C245.9,79.5,245.4,79.1,244.9,79.2"/>
				<path class="st9" d="M233.2,76.2l0-1.7l4.2-0.7l0,1.7L233.2,76.2 M239,68C238.9,68,238.9,68,239,68c-0.8,0.1-1.5,1-1.5,2l0,1.3
					l-4.2,0.7l0-1.3c0-0.9-0.6-1.6-1.4-1.5c0,0,0,0,0,0c-0.8,0.1-1.4,1-1.4,2l0,7.1c0,0.7,0.6,1.3,1.2,1.3c0,0,0,0,0,0l0.5-0.1
					l6.5-1.1l0.5-0.1c0.6-0.1,1.2-0.9,1.2-1.7l0-7.1C240.3,68.6,239.7,67.9,239,68"/>
				<path class="st9" d="M225.6,70.3C225.6,70.3,225.6,70.3,225.6,70.3l-2,0.3l-11,1.9c-0.7,0.1-1.2,1-1.2,1.8
					c0,0.8,0.5,1.5,1.2,1.4c0,0,0,0,0,0l11.1-1.9l-1,4.4c-0.2,0.8,0.3,1.7,1,1.8c0.1,0,0.3,0,0.4,0c0.6-0.1,1.1-0.6,1.2-1.3l1.5-6.7
					c0.2-0.8-0.2-1.6-0.8-1.7C226.1,70.3,225.9,70.2,225.6,70.3"/>
				<path class="st9" d="M226.4,80.7C226.4,80.7,226.4,80.7,226.4,80.7l-14.6,2.5c-0.6,0.1-1.2,1-1.2,1.8c0,0.8,0.5,1.5,1.1,1.4
					c0,0,0,0,0,0l5.7-1l0,5.9c0,1,0.8,1.6,1.6,1.5c0,0,0,0,0,0c0.8-0.1,1.6-1.1,1.7-2.1l0-5.9l5.6-0.9c0.6-0.1,1.1-1,1.1-1.8
					C227.6,81.4,227.1,80.6,226.4,80.7"/>
				<path class="st9" d="M206.5,73.5C206.5,73.5,206.4,73.5,206.5,73.5l-10.6,1.8l-1.5,0.3c0,0-1.2,0.2-1.7,0.9
					c-0.6,0.8-0.5,1.8-0.5,1.8l0,3c0,0,0,1.1,0.5,1.7c0.5,0.5,1.4,0.4,1.7,0.4c0.1,0,0.1,0,0.1,0l7.5-1.3l0,1.7l-9.3,1.6
					c-0.6,0.1-1.1,0.9-1.1,1.7c0,0.8,0.5,1.4,1.1,1.3c0,0,0,0,0,0l14.6-2.5c0.6-0.1,1.2-0.9,1.2-1.7c0-0.8-0.5-1.4-1.1-1.3
					c0,0,0,0,0,0l-2,0.3l0-3.4c0-0.8-0.5-1.3-1.1-1.2c0,0,0,0,0,0l-8.5,1.4l0-1.7l10.9-1.8c0.6-0.1,1.2-0.9,1.2-1.7
					C207.6,74,207.1,73.4,206.5,73.5"/>
				<path class="st9" d="M196.3,93.6c-0.4,0.1-0.7-0.3-0.7-0.8c0-0.5,0.3-0.9,0.7-1l3.5-0.6l0,0l3.4-0.6c0,0,0,0,0,0
					c0.4-0.1,0.7,0.3,0.7,0.8c0,0.5-0.3,0.9-0.7,1l-3.4,0.6l0,0L196.3,93.6C196.3,93.6,196.3,93.6,196.3,93.6 M204.5,87.7
					C204.5,87.7,204.5,87.7,204.5,87.7l-4.7,0.8l0,0l-4.8,0.8c-1.7,0.3-3,2.2-3,4.2c0,2,1.3,3.4,2.9,3.2c0,0,0.1,0,0.1,0l4.8-0.8
					l0,0l4.6-0.8c1.7-0.3,3-2.2,3-4.2C207.5,88.9,206.2,87.5,204.5,87.7"/>
				<path class="st10" d="M184.3,78.4C184.3,78.5,184.3,78.5,184.3,78.4C184.3,78.5,184.3,78.5,184.3,78.4
					C184.3,78.5,184.3,78.4,184.3,78.4 M179.9,98.8c0-0.1,0.1-0.2,0.1-0.3c0.1-0.2,0.2-0.4,0.3-0.6l0.1-0.1
					c-0.1,0.3-0.2,0.6-0.3,0.9L179.9,98.8 M180.3,98.4c0.1-0.4,0.2-0.8,0.4-1.3c0.1-0.1,0.2-0.3,0.3-0.4l0.1-0.2
					c-0.1,0.2-0.1,0.4-0.2,0.5c-0.1,0.3-0.2,0.6-0.2,0.9l0,0.1C180.5,98.1,180.4,98.2,180.3,98.4 M180.9,97.7
					c0.1-0.2,0.1-0.5,0.2-0.7c0.1-0.3,0.2-0.5,0.2-0.8c0.1-0.1,0.3-0.3,0.4-0.4c-0.1,0.1-0.1,0.3-0.2,0.5c-0.1,0.3-0.2,0.6-0.3,0.9
					l0,0.1C181.2,97.4,181,97.5,180.9,97.7 M181.6,97c0.1-0.3,0.2-0.6,0.3-0.9c0.1-0.2,0.1-0.3,0.2-0.5c0.1-0.1,0.2-0.2,0.3-0.2
					c-0.1,0.4-0.3,0.9-0.5,1.3l0,0.1C181.7,96.8,181.6,96.9,181.6,97 M182.2,96.4c0.2-0.4,0.3-0.8,0.4-1.1c0.1-0.1,0.2-0.1,0.3-0.2
					c0,0.2-0.1,0.3-0.2,0.4c-0.1,0.2-0.2,0.4-0.3,0.6l0,0.1L182.2,96.4 M182.7,95.9c0.1-0.2,0.1-0.3,0.2-0.5c0-0.1,0.1-0.3,0.1-0.4
					l0.2-0.1c-0.1,0.2-0.1,0.4-0.2,0.6l0,0C182.9,95.7,182.8,95.8,182.7,95.9 M183.3,95.4c0.1-0.2,0.1-0.3,0.2-0.5l0.2-0.1
					c0,0.1-0.1,0.2-0.1,0.3l0,0l-0.1,0.1L183.3,95.4 M180.1,98.9L180.1,98.9l0.1-0.1c0.3-0.3,0.6-0.7,0.9-1c0.4-0.5,0.9-0.9,1.3-1.3
					c0.4-0.4,0.8-0.8,1.3-1.2c0.3-0.2,0.5-0.4,0.8-0.7C183.8,97,181.9,98.7,180.1,98.9 M183.8,94.9l0.1-0.2c0.1,0,0.2-0.1,0.3-0.1
					C184,94.7,183.9,94.8,183.8,94.9 M179.4,98.8c-0.1-0.3-0.4-0.8-0.6-1c-0.3-0.4-0.6-0.9-0.8-1.4c-0.2-0.4-0.7-1.7-1-2.5
					c0.6,0.6,1.2,1.2,1.6,2C179.1,96.6,179.6,97.6,179.4,98.8 M179.7,90.2c-0.1,0-0.2-0.1-0.3-0.1l0.1-0.3
					C179.6,90,179.6,90.1,179.7,90.2 M181.7,90.9c-0.2,0-0.5,0-0.7-0.1l-0.2-0.1c0.7-0.4,1.4-0.8,2.2-1.1c0.1,0,0.2-0.1,0.3-0.1
					c0.4-0.2,1-0.4,1.4-0.7c-0.4,0.4-0.8,0.9-1.2,1.3c-0.5,0.4-1,0.6-1.5,0.8C181.9,90.9,181.8,90.9,181.7,90.9 M179.3,90
					c-0.1,0-0.2-0.1-0.3-0.2c0-0.2,0.1-0.4,0.2-0.7c0.1,0.1,0.1,0.3,0.2,0.4l0,0.1C179.3,89.8,179.3,89.9,179.3,90 M181,90.6
					c0.1-0.2,0.2-0.4,0.3-0.5c0.4-0.5,0.7-1.1,1.3-1.3c0.3-0.2,0.7-0.3,1.1-0.3c0.5-0.1,0.9,0,1.4,0c-0.4,0.4-1.1,0.7-1.6,0.9
					c-0.1,0.1-0.2,0.1-0.3,0.2C182.4,89.9,181.6,90.2,181,90.6 M178.8,89.8c-0.1-0.1-0.2-0.1-0.3-0.2c0.2-0.3,0.2-0.6,0.3-0.9
					c0,0.1,0.1,0.2,0.2,0.3l0,0C179,89.3,178.9,89.5,178.8,89.8 M178.4,89.4c-0.1-0.1-0.2-0.2-0.2-0.3c0.2-0.3,0.3-0.7,0.5-1.1
					c0,0.1,0.1,0.3,0.1,0.4l0,0C178.6,88.7,178.6,89.1,178.4,89.4 M178.1,89l-0.1-0.1l-0.1-0.2c0.2-0.4,0.3-0.8,0.5-1.2
					c0,0.2,0.1,0.3,0.1,0.4l0,0C178.4,88.2,178.2,88.6,178.1,89 M177.8,88.3c0-0.2-0.1-0.4-0.1-0.7c0.2-0.4,0.3-0.8,0.4-1.2
					c0,0.2,0.1,0.4,0.1,0.6l0,0l0,0C178.1,87.5,178,87.9,177.8,88.3 M177.8,87.1c0.1-0.5,0.2-1,0.3-1.5c0,0.1,0.1,0.3,0.1,0.4l0,0
					C178,86.5,177.9,86.8,177.8,87.1 M180.1,90.4L180.1,90.4c-0.5-0.7-0.8-1.3-1.2-2c-0.2-0.5-0.4-1.1-0.5-1.7
					c-0.1-0.4-0.1-0.7-0.2-1.1c0.3,0.3,0.6,0.5,0.9,0.8c0.5,0.4,0.7,1,0.8,1.7c0.1,0.6,0.1,1.2,0.1,1.9
					C180.1,90.1,180.1,90.3,180.1,90.4 M185.1,78.9c-0.1,0-0.2-0.1-0.3-0.1c0.2-0.2,0.4-0.4,0.6-0.6l-0.1,0.1
					C185.2,78.5,185.2,78.7,185.1,78.9 M186.9,78.5c0.1-0.3,0.3-0.5,0.3-0.8l0.2,0C187.3,78,187.1,78.3,186.9,78.5 M185.5,78.9
					c-0.1,0-0.2,0-0.3,0c0.1-0.2,0.1-0.3,0.2-0.5c0.1-0.1,0.1-0.3,0.2-0.4l0.2-0.1l0.1,0c0,0.1-0.1,0.2-0.1,0.3
					C185.8,78.4,185.6,78.7,185.5,78.9 M186,78.9c-0.1,0-0.2,0-0.3,0c0.1-0.2,0.2-0.4,0.3-0.6c0.1-0.2,0.1-0.4,0.2-0.5
					c0.1,0,0.2,0,0.3-0.1C186.4,78.1,186.2,78.5,186,78.9L186,78.9 M186.2,78.9c0.2-0.4,0.4-0.8,0.5-1.2c0.1,0,0.2,0,0.4,0
					c-0.1,0.3-0.3,0.7-0.4,1C186.5,78.8,186.3,78.8,186.2,78.9L186.2,78.9 M184.4,78.2c-0.1-0.3-0.1-0.5-0.2-0.8
					c-0.1-0.3-0.2-0.5-0.2-0.8c-0.1-0.6-0.2-1.3-0.3-2l0,0l0,0c0.4,0.4,0.8,0.9,0.8,1.5c0,0.6,0,1.2,0,1.8L184.4,78.2 M188.2,71.1
					c-0.4,0.1-0.8,0.4-1.1,0.7c-0.3,0.3-0.6,0.6-0.8,1c-0.3,0.6-0.5,1.6-0.3,2.2c-0.4,0.9-0.9,1.8-1.3,2.6c0-0.5,0-1,0-1.4
					c-0.1-0.6-0.2-1-0.5-1.4c-0.2-0.3-0.4-0.5-0.6-0.6c0,0-0.1,0-0.1,0c-0.1,0-0.1,0-0.1,0.1c-0.2,0.7-0.3,1.5-0.2,2.2
					c0.1,0.8,0.5,1.5,1,2c-0.4-0.6-0.9-1.3-1-2.1c0-0.4,0.1-0.9,0.2-1.4c0.1,0.6,0.2,1.2,0.3,1.8c0,0.3,0.1,0.6,0.2,0.8
					c0.1,0.3,0.2,0.6,0.2,0.9c0.1,0.1,0.2,0.3,0.4,0.4l0,0c-0.6,0.3-0.4,0.4-0.5,0.6c-0.5,1.1-1,2.2-1.4,3.3c0-0.7-0.2-1.3-0.6-1.8
					c-0.2-0.4-0.6-0.5-0.9-0.8c-0.3-0.2-0.5-0.3-0.8-0.5c0,0-0.1,0-0.1,0c-0.1,0-0.2,0.2-0.2,0.3c0,0.8,0,1.8,0.3,2.5
					c0.3,0.9,0.8,1.7,1.5,2.2c-0.6,1.9-1.2,3.7-1.6,5.7c-0.1-0.4-0.1-0.9-0.1-1.3c0-0.6-0.1-1.2-0.2-1.7c-0.4-1.1-1.3-1.6-2-2.4
					c0,0-0.1,0-0.1,0c-0.1,0-0.2,0.1-0.2,0.2c-0.3,1.3-0.8,2.9-0.2,4c0.5,1.1,1.6,1.4,2.5,1.9l0.1,0.2c-0.4,1.9-0.6,3.8-0.7,5.7
					c-0.1-0.4-0.3-0.8-0.6-1.1c-0.6-1-1.4-1.9-2.2-2.6c0,0-0.1,0-0.1,0c-0.1,0-0.2,0.1-0.2,0.2c0.2,1.2-0.1,2.4,0.2,3.6
					c0.2,1.2,0.9,2,1.9,2.4c0.2,0.1,0.4,0.1,0.7,0.1c0.1,0,0.1,0,0.2,0l0.1,0.1c0,0.8,0,1.6,0.1,2.4c0,0.1,0.1,0.2,0.2,0.2
					c0.1,0,0.2-0.1,0.2-0.2c0-0.8-0.1-1.5-0.1-2.3c0.1,0,0.1,0,0.2,0c2.1-0.3,4.3-2.3,4.8-5.1c0-0.1,0-0.2-0.2-0.2c0,0,0,0,0,0
					c-0.7,0.2-1.5,0.4-2.2,0.8l-0.1,0c-0.5,0.3-1,0.6-1.4,1.1c-0.4,0.5-0.8,1.1-1.1,1.7l-0.1,0.3l0-0.3c0.1-2.2,0.3-4.4,0.7-6.5
					c0.4,0.2,0.8,0.3,1.2,0.2c0.1,0,0.3-0.1,0.4-0.1c0.5-0.2,1-0.4,1.4-0.7c0.7-0.6,1.3-1.3,1.8-2c0.1-0.1,0.1-0.3,0-0.4
					c-0.6-0.1-1.2-0.2-1.8-0.1c-0.3,0-0.7,0.1-1,0.2c-0.5,0.2-0.9,0.6-1.3,1.1c-0.2,0.3-0.4,0.5-0.6,0.8l0,0c0.3-1.3,0.6-2.6,1-3.8
					c0.2-0.6,0.4-1.2,0.6-1.7c0.5,0.1,1,0.1,1.5,0c1.1-0.2,2.2-0.8,2.6-2.5c0-0.1,0-0.2-0.1-0.2c-0.2,0-0.5,0-0.7,0
					c-1,0.1-2,0.6-2.8,1.6c0.6-1.5,1.2-3,1.8-4.5c0.5,0.1,1,0.3,1.5,0.2c0.2,0,0.4-0.1,0.6-0.2c0.6-0.3,1.1-0.9,1.2-1.7l-0.1-0.2
					c-0.4,0-0.8-0.1-1.2,0c-0.2,0-0.5,0.1-0.7,0.2l-0.1,0.1l-0.1,0c-0.2,0.1-0.4,0.3-0.6,0.5c0.5-1,0.9-2,1.4-3
					c0.5-0.2,1.1-0.5,1.5-1.1c0.5-0.9,0.4-1.8,0.6-2.7C188.4,71.2,188.4,71.1,188.2,71.1"/>
				<path class="st10" d="M258.7,85.4l-0.2-0.1c-0.1-0.3-0.2-0.5-0.3-0.8l0.1,0.1c0.1,0.2,0.2,0.3,0.3,0.5
					C258.6,85.2,258.6,85.3,258.7,85.4 M258.2,85.1c-0.1-0.1-0.2-0.2-0.4-0.3l0-0.1c-0.1-0.3-0.2-0.5-0.2-0.8
					c-0.1-0.2-0.1-0.3-0.2-0.5l0.2,0.1c0.1,0.1,0.2,0.2,0.3,0.3C258,84.4,258.1,84.8,258.2,85.1 M257.7,84.7
					c-0.1-0.1-0.3-0.2-0.4-0.3l0-0.1c-0.1-0.3-0.2-0.5-0.3-0.8c-0.1-0.1-0.1-0.3-0.2-0.4c0.2,0.1,0.3,0.2,0.4,0.2
					c0.1,0.2,0.2,0.5,0.2,0.7C257.5,84.2,257.6,84.4,257.7,84.7 M257,84.2c-0.1-0.1-0.2-0.1-0.3-0.2l0,0c-0.2-0.3-0.4-0.7-0.5-1.1
					c0.1,0,0.2,0.1,0.3,0.1c0.1,0.1,0.1,0.3,0.2,0.4C256.8,83.6,256.9,83.9,257,84.2 M256.4,83.8l-0.2-0.1l0,0
					c-0.1-0.2-0.2-0.3-0.3-0.5c-0.1-0.1-0.1-0.2-0.2-0.4c0.1,0,0.2,0,0.3,0.1C256.1,83.2,256.2,83.5,256.4,83.8 M255.9,83.5
					c-0.1-0.1-0.2-0.1-0.3-0.2l0,0c-0.1-0.2-0.2-0.4-0.2-0.6l0.2,0c0,0.1,0.1,0.3,0.1,0.4C255.7,83.3,255.8,83.4,255.9,83.5
					 M258.2,85.6c-1.8,0.2-3.6-0.8-4.1-2.8c0.2,0.2,0.5,0.3,0.8,0.4c0.4,0.2,0.8,0.5,1.3,0.7c0.5,0.3,0.9,0.6,1.3,0.9
					c0.3,0.2,0.6,0.5,0.9,0.7l0,0l0.1,0.1C258.4,85.6,258.3,85.6,258.2,85.6 M255.3,83.1l-0.1-0.1L255,83l0,0l-0.1-0.3l0.2,0
					C255.2,82.9,255.2,83,255.3,83.1 M254.8,82.9c-0.1-0.1-0.3-0.1-0.4-0.2c0.1,0,0.2,0,0.3,0L254.8,82.9 M259.1,85.2
					c-0.2-1.1,0.3-2.3,0.8-3.3c0.5-0.9,1-1.8,1.7-2.5c-0.3,0.9-0.9,2.4-1,2.9c-0.2,0.6-0.5,1.2-0.8,1.7
					C259.5,84.3,259.3,84.9,259.1,85.2 M256.6,78.2c0,0-0.1,0-0.1,0c-0.5,0-1.1,0-1.5-0.2c-0.4-0.2-0.8-0.5-1.2-0.9
					c0.4,0.1,0.9,0.2,1.4,0.2c0.1,0,0.2,0,0.3,0c0.7,0.1,1.5,0.2,2.2,0.4l-0.2,0.1C257.2,78.1,256.9,78.2,256.6,78.2 M258.8,76.8
					c0.1-0.2,0.2-0.3,0.3-0.5l0.1,0.3C259.1,76.6,259,76.7,258.8,76.8 M257.6,77.6c-0.6-0.1-1.3-0.2-2-0.3c-0.1,0-0.2,0-0.3,0
					c-0.5,0-1.2-0.1-1.6-0.4c0.5-0.3,1.1-0.5,1.7-0.5c0.3,0,0.5,0,0.8,0c0.5,0.1,0.9,0.5,1.3,0.9C257.4,77.3,257.5,77.4,257.6,77.6
					 M259.3,76.4c0-0.1-0.1-0.2-0.1-0.3l0-0.1c0.1-0.1,0.1-0.3,0.2-0.4c0.1,0.2,0.1,0.4,0.2,0.6C259.5,76.3,259.4,76.3,259.3,76.4
					 M259.7,76c-0.1-0.2-0.1-0.5-0.2-0.7l0,0c0.1-0.1,0.1-0.3,0.2-0.4c0.1,0.3,0.2,0.6,0.3,0.8C260,75.8,259.9,75.9,259.7,76
					 M260.2,75.5c-0.2-0.2-0.2-0.6-0.3-0.9l0,0c0.1-0.1,0.1-0.3,0.2-0.4c0.1,0.3,0.3,0.6,0.4,0.9C260.4,75.3,260.3,75.4,260.2,75.5
					 M260.5,74.9c-0.2-0.3-0.3-0.6-0.4-1l0,0c0.1-0.2,0.1-0.3,0.1-0.5c0.2,0.4,0.3,0.8,0.5,1.1l-0.1,0.3L260.5,74.9 M260.8,74.2
					c-0.2-0.3-0.3-0.7-0.5-1.1l0,0l0-0.1c0-0.2,0.1-0.4,0.1-0.6c0.1,0.4,0.3,0.7,0.4,1.1C260.8,73.8,260.8,74,260.8,74.2 M260.8,73
					c-0.1-0.3-0.2-0.6-0.3-0.9l0,0c0-0.2,0-0.3,0.1-0.5C260.6,72.1,260.8,72.5,260.8,73 M258.5,77.1c0-0.2,0-0.4,0.1-0.6
					c0-0.6,0-1.3,0.1-1.9c0.1-0.7,0.4-1.4,0.8-2c0.3-0.3,0.6-0.7,0.9-1.1c-0.1,0.4-0.1,0.8-0.2,1.2c-0.1,0.6-0.3,1.3-0.6,1.9
					C259.3,75.5,258.9,76.3,258.5,77.1L258.5,77.1 M253.5,67.3c-0.1-0.1-0.1-0.3-0.2-0.4l-0.1-0.1c0.2,0.1,0.4,0.2,0.6,0.4
					C253.7,67.1,253.6,67.2,253.5,67.3 M251.7,67.5c-0.2-0.1-0.4-0.3-0.5-0.6l0.2-0.1C251.5,67.1,251.6,67.3,251.7,67.5 M252.4,67.6
					c-0.1,0-0.2,0-0.4,0c-0.1-0.3-0.4-0.5-0.5-0.9c0.1,0,0.2-0.1,0.4-0.1C252,67,252.2,67.3,252.4,67.6L252.4,67.6 M253.1,67.5
					c-0.1-0.2-0.2-0.4-0.3-0.7l-0.1-0.3l0.1,0l0.2,0c0.1,0.1,0.1,0.2,0.2,0.4c0.1,0.1,0.1,0.3,0.2,0.4
					C253.3,67.4,253.2,67.4,253.1,67.5 M252.6,67.6L252.6,67.6c-0.2-0.3-0.4-0.7-0.5-1c0.1,0,0.2,0,0.3-0.1c0.1,0.2,0.1,0.3,0.2,0.5
					c0.1,0.2,0.2,0.3,0.3,0.5C252.8,67.6,252.7,67.6,252.6,67.6 M254.3,66.6c0-0.3,0.1-0.7,0.3-1c0.1-0.3,0.2-0.6,0.2-0.9
					c0.1-0.6,0.2-1.3,0.3-1.9c0.1,0.4,0.2,0.9,0.2,1.3C255.2,65,254.8,65.8,254.3,66.6 M254.2,66.4l0-0.3c-0.1-0.6-0.1-1.2,0-1.7
					c0.1-0.7,0.4-1.3,0.8-1.8l0,0l0,0.1c-0.1,0.7-0.2,1.4-0.3,2c0,0.3-0.1,0.6-0.2,0.9C254.4,65.8,254.3,66.1,254.2,66.4
					 M250.5,60.6C250.5,60.6,250.4,60.6,250.5,60.6c-0.2,0-0.2,0.2-0.2,0.3c0.1,0.9,0.1,1.8,0.6,2.5c0.3,0.5,0.9,0.5,1.5,0.6
					c0.5,0.8,1,1.6,1.4,2.5c-0.2-0.1-0.4-0.2-0.6-0.3l-0.1,0l-0.1,0c-0.2,0-0.3,0-0.5,0c-0.4,0.1-0.9,0.3-1.3,0.4l-0.1,0.2
					c0,0.8,0.6,1.2,1.2,1.3c0.2,0,0.3,0,0.5,0c0.5-0.1,1.1-0.4,1.6-0.7c0.6,1.3,1.3,2.6,1.8,3.9c-0.7-0.6-1.6-0.8-2.5-0.7
					c-0.3,0-0.7,0.1-1,0.2c-0.1,0-0.2,0.2-0.1,0.3c0.3,1.4,1.3,1.8,2.3,1.6c0.6-0.1,1.2-0.3,1.7-0.6c0.2,0.5,0.4,1,0.6,1.6
					c0.4,1.1,0.7,2.3,1,3.5l0,0c-0.2-0.2-0.4-0.4-0.6-0.6c-0.4-0.4-0.8-0.7-1.3-0.7c-0.2,0-0.4,0-0.7,0c-0.7,0.1-1.5,0.4-2.1,0.8
					c-0.2,0.1-0.2,0.3-0.1,0.4c0.6,0.5,1.2,1,1.8,1.4c0.4,0.2,1,0.3,1.4,0.3c0.1,0,0.2,0,0.3,0c0.5-0.1,0.9-0.3,1.4-0.7
					c0.4,2,0.6,4.1,0.7,6.3l0,0.3l-0.1-0.2c-0.3-0.5-0.7-1-1.1-1.3c-0.4-0.3-0.9-0.5-1.4-0.6l-0.1,0c-0.7-0.1-1.5-0.1-2.2-0.1
					c0,0,0,0,0,0c-0.1,0-0.2,0.2-0.2,0.3c0.4,2.5,2.5,3.7,4.5,3.5c0.2,0,0.3-0.1,0.5-0.1c0,0.8,0,1.6-0.1,2.3c0,0.1,0.1,0.2,0.2,0.2
					c0.1,0,0.2-0.1,0.2-0.2c0.1-0.8,0.1-1.6,0.1-2.4l0.1-0.1c0,0,0.1,0,0.1,0c0.3,0,0.5-0.2,0.8-0.3c0.9-0.6,1.6-1.7,1.9-3
					c0.2-1.2,0-2.4,0.2-3.7c0-0.1-0.1-0.2-0.2-0.2c0,0-0.1,0-0.1,0.1c-0.8,1-1.6,2.1-2.2,3.4c-0.2,0.4-0.4,0.9-0.6,1.3
					c-0.1-1.9-0.3-3.7-0.7-5.5l0.1-0.2c0.9-0.8,2-1.5,2.5-2.7c0.6-1.3,0.1-2.7-0.2-4c0-0.1-0.1-0.1-0.2-0.1c0,0-0.1,0-0.1,0.1
					c-0.7,1-1.6,1.8-2,3c-0.2,0.6-0.2,1.2-0.2,1.8c0,0.4,0,0.9-0.1,1.3c-0.4-1.8-0.9-3.5-1.5-5.1c0.7-0.7,1.2-1.8,1.5-2.7
					c0.3-0.8,0.3-1.8,0.3-2.6c0-0.1-0.1-0.2-0.2-0.2c0,0-0.1,0-0.1,0c-0.3,0.3-0.5,0.5-0.8,0.8c-0.3,0.3-0.7,0.6-0.9,1.1
					c-0.3,0.6-0.5,1.3-0.5,2c-0.4-1-0.7-1.9-1.2-2.8c-0.1-0.1-0.1-0.3-0.1-0.4l0,0c0.3-0.8,1-1.8,1.1-2.9c0.1-0.8-0.2-1.5-0.5-2.1
					c0-0.1-0.1-0.1-0.1-0.1c-0.1,0-0.1,0-0.2,0.1c-0.2,0.2-0.5,0.5-0.6,0.8c-0.3,0.5-0.4,1-0.5,1.6c0,0.5,0,1,0,1.4
					c-0.4-0.8-0.8-1.5-1.3-2.2c0.3-0.7,0.1-1.6-0.2-2.1c-0.2-0.3-0.5-0.6-0.8-0.7C251.2,60.7,250.8,60.5,250.5,60.6"/>
				<path class="st10" d="M191.4,61.8c-0.1,0-0.2,0.1-0.3,0.2l-1.9,2.4c-0.2,0.2-0.2,0.5,0,0.7c0.1,0.1,0.2,0.1,0.3,0.1
					c0.1,0,0.2-0.1,0.3-0.2l0.6-0.8l1.8,2.3c0.1,0.1,0.2,0.1,0.3,0.1c0.1,0,0.2-0.1,0.3-0.2c0.2-0.2,0.2-0.6,0-0.8l-1.8-2.3l0.6-0.8
					c0.2-0.2,0.2-0.5,0-0.7C191.7,61.8,191.5,61.8,191.4,61.8"/>
				<path class="st10" d="M195.9,57c-0.1,0-0.2,0.1-0.3,0.1c-0.2,0.2-0.3,0.6-0.1,0.8l0.7,1.1l-1.4,1.4l-0.7-1.1
					c-0.1-0.1-0.2-0.2-0.4-0.2c-0.1,0-0.2,0.1-0.3,0.1c-0.2,0.2-0.3,0.6-0.1,0.8l1.8,3c0.1,0.1,0.2,0.2,0.4,0.2
					c0.1,0,0.2-0.1,0.3-0.1c0.2-0.2,0.3-0.6,0.1-0.8l-0.7-1.1l1.3-1.4l0.7,1.1c0.1,0.1,0.2,0.2,0.4,0.2c0.1,0,0.2-0.1,0.3-0.1
					c0.2-0.2,0.3-0.6,0.1-0.8l-1.8-3C196.1,57,196,57,195.9,57"/>
				<path class="st10" d="M200.7,52.8c-0.1,0-0.1,0-0.2,0.1l-2,1.6c-0.2,0.2-0.3,0.5-0.2,0.8l1.4,3.2c0.1,0.2,0.2,0.3,0.4,0.2
					c0.1,0,0.1,0,0.2-0.1l2-1.6c0.2-0.1,0.3-0.5,0.2-0.7c-0.1-0.2-0.2-0.2-0.3-0.2c-0.1,0-0.1,0-0.2,0.1l-1.6,1.3l-0.4-0.9l1.4-1.1
					c0.2-0.1,0.3-0.5,0.2-0.7c-0.1-0.2-0.2-0.2-0.3-0.2c-0.1,0-0.1,0-0.2,0.1l-1.4,1.1l-0.4-0.8l1.6-1.3c0.2-0.1,0.3-0.5,0.2-0.7
					C201,52.9,200.9,52.8,200.7,52.8"/>
				<path class="st10" d="M207.9,48.4c-0.2,0-0.5,0.1-0.8,0.3c-0.8,0.4-1.2,1.3-1,2.1l0,0c0.2,0.8,0.6,0.9,1.2,0.8
					c0.1,0,0.3,0,0.4-0.1c0.1,0,0.2,0,0.3-0.1c0.4-0.1,0.5,0,0.6,0.2l0,0c0.1,0.3-0.1,0.5-0.5,0.7c-0.2,0.1-0.3,0.1-0.5,0.2
					c-0.2,0-0.4,0-0.6-0.1c0,0-0.1,0-0.1,0c0,0-0.1,0-0.1,0.1c-0.2,0.1-0.4,0.4-0.3,0.7c0,0.2,0.1,0.3,0.3,0.3
					c0.3,0.1,0.5,0.1,0.8,0c0.3,0,0.5-0.1,0.8-0.3c0.8-0.4,1.3-1.3,1.1-2.2l0,0c-0.2-0.7-0.6-0.9-1.3-0.8c-0.1,0-0.2,0-0.3,0
					c-0.2,0-0.3,0.1-0.4,0.1c-0.4,0.1-0.5,0-0.6-0.2l0,0c-0.1-0.2,0.1-0.5,0.4-0.7c0.1-0.1,0.3-0.1,0.4-0.1c0.2,0,0.3,0,0.5,0l0.2,0
					c0.2-0.1,0.3-0.4,0.3-0.7c-0.1-0.2-0.2-0.3-0.3-0.3C208.3,48.4,208.1,48.4,207.9,48.4"/>
				<path class="st10" d="M213.2,50.2c-0.6,0.1-1.1-0.4-1.2-1.1l0,0c-0.1-0.8,0.3-1.7,1-1.9c0.1,0,0.1,0,0.2-0.1
					c0.6-0.1,1.1,0.4,1.2,1.1l0,0c0.1,0.8-0.3,1.7-1,1.9C213.3,50.1,213.2,50.2,213.2,50.2 M213.3,46c-0.1,0-0.3,0.1-0.4,0.1
					c-1.2,0.4-2,1.9-1.8,3.3l0,0c0.2,1.2,1,2,2,1.8c0.1,0,0.3-0.1,0.4-0.1c1.2-0.4,2-1.9,1.8-3.3l0,0
					C215.2,46.6,214.4,45.9,213.3,46"/>
				<path class="st10" d="M218.4,47.6l0.5-1.7l0.6,1.5L218.4,47.6 M219,44.5C219,44.5,219,44.5,219,44.5L219,44.5
					c-0.3,0.1-0.5,0.3-0.6,0.5l-1.4,4.2l0,0.2c0,0.3,0.2,0.5,0.4,0.4c0,0,0,0,0,0c0.2,0,0.3-0.2,0.4-0.4l0.3-0.9l1.8-0.3l0.3,0.7
					c0.1,0.2,0.2,0.3,0.4,0.3c0,0,0,0,0,0c0.2,0,0.4-0.3,0.4-0.6l0-0.2l-1.4-3.6C219.4,44.6,219.2,44.4,219,44.5"/>
				<path class="st10" d="M224.6,46.5C224.6,46.5,224.5,46.5,224.6,46.5l-0.8,0l0.1-1.5l0.7,0c0.4,0,0.7,0.2,0.7,0.7l0,0
					C225.2,46.1,225,46.4,224.6,46.5 M223.6,44c-0.2,0-0.4,0.3-0.5,0.6l-0.4,4c0,0.3,0.1,0.6,0.4,0.5c0,0,0,0,0,0
					c0.2,0,0.4-0.3,0.5-0.6l0.1-1l0.7,0c0.1,0,0.1,0,0.2,0c0.8-0.1,1.5-0.7,1.6-1.8v0c0.1-1-0.4-1.7-1.4-1.7L223.6,44
					C223.6,44,223.6,44,223.6,44"/>
				<path class="st10" d="M231.7,44.5c-0.2,0-0.4,0.2-0.4,0.5l-1,3.9c-0.1,0.3,0.1,0.6,0.3,0.6c0,0,0.1,0,0.1,0
					c0.2,0,0.4-0.2,0.4-0.5l0.3-1.4l1.5,0.3c0,0,0.1,0,0.1,0c0.2,0,0.3-0.2,0.4-0.4c0.1-0.3,0-0.5-0.3-0.6l-1.5-0.3l0.3-1.1l1.7,0.4
					c0,0,0.1,0,0.1,0c0.2,0,0.3-0.2,0.4-0.4c0.1-0.3,0-0.5-0.3-0.6l-2.2-0.5C231.8,44.5,231.8,44.5,231.7,44.5"/>
				<path class="st10" d="M237.2,49.1l-1-0.4l1-1.4L237.2,49.1 M237.4,46c-0.1,0-0.3,0.1-0.4,0.3l-2.6,3.3l-0.1,0.2
					c-0.1,0.3,0,0.6,0.2,0.6c0.1,0,0.1,0,0.2,0c0.1,0,0.2-0.1,0.3-0.2l0.5-0.7l1.6,0.6l0,0.9c0,0.2,0.1,0.4,0.3,0.5
					c0.1,0,0.1,0,0.2,0c0.2,0,0.3-0.2,0.4-0.4l0-0.2l0-4.3c0-0.3-0.1-0.5-0.3-0.6l0,0C237.6,46,237.5,46,237.4,46"/>
				<path class="st10" d="M242.3,51.1c-0.1,0-0.3,0-0.4-0.1l-0.8-0.5l0.6-1.3l0.7,0.4c0.4,0.2,0.5,0.6,0.3,1l0,0
					C242.7,50.9,242.5,51,242.3,51.1 M241.6,48c-0.2,0-0.3,0.1-0.4,0.3l-1.7,3.6c-0.1,0.3-0.1,0.6,0.1,0.7c0.1,0,0.1,0.1,0.2,0
					c0.2,0,0.3-0.1,0.4-0.3l0.5-1l0.6,0.4l0.2,1.7c0,0.2,0.1,0.4,0.2,0.5c0.1,0,0.1,0.1,0.2,0c0.1,0,0.3-0.1,0.4-0.3
					c0.1-0.2,0.1-0.3,0.1-0.5l-0.1-1.2c0.1,0,0.1,0,0.2,0c0.4-0.1,0.8-0.4,1.1-1l0,0c0.2-0.4,0.3-0.9,0.2-1.2
					c-0.1-0.4-0.3-0.8-0.8-1.1l-1.2-0.7C241.7,48,241.7,48,241.6,48"/>
				<path class="st10" d="M246.3,51.1c-0.1,0-0.3,0.1-0.4,0.3l-2,3.4c-0.2,0.3-0.1,0.6,0.1,0.7c0.1,0.1,0.2,0.1,0.3,0.1
					c0.1,0,0.3-0.1,0.3-0.3l1.3-2.1l-0.2,1.8c0,0.2,0,0.4,0.1,0.5c0.1,0.1,0.2,0.1,0.2,0.1c0.1,0,0.1,0,0.2-0.1l1.4-0.8l-1.3,2.1
					c-0.2,0.3-0.1,0.6,0.1,0.8c0.1,0.1,0.2,0.1,0.3,0.1c0.1,0,0.3-0.1,0.4-0.3l2-3.4c0.2-0.3,0.1-0.6-0.1-0.8l-0.1-0.1
					c-0.1-0.1-0.2-0.1-0.3-0.1c-0.1,0-0.1,0-0.2,0.1l-1.9,1.2l0.3-2.6c0-0.2,0-0.4-0.2-0.5l-0.1-0.1
					C246.5,51.1,246.4,51.1,246.3,51.1"/>
			</g>
		</g>
	</g>
	<polygon class="st1" points="139.5,138.7 269.2,112.3 269.1,116.9 139.9,143.4 	"/>
</g>
<g id="레이어_6" class="st11">
	<path class="st12" d="M294.5,79c0.6-0.9,1-2.1,1-3.3c0-3.3-2.7-6-6-6c-3.3,0-6,2.7-6,6c0,0.9,0.2,1.7,0.5,2.4
		c-3.8,0.5-6.8,3.8-6.8,7.7c0,4.3,3.5,7.8,7.8,7.8c3.7,0,6.8-2.6,7.6-6c0.5,0.2,1.1,0.3,1.7,0.3c2.5,0,4.5-2,4.5-4.5
		C298.8,81,296.9,79.1,294.5,79z"/>
</g>
<g id="레이어_7" class="st11">
	<circle class="st12" cx="296.3" cy="72.5" r="4"/>
</g>
<g id="레이어_4" class="st11">
	<g class="st13">
		<g>
			<path class="st14" d="M301.3,53.5c0.3-0.7,0.5-1.4,0.5-2.2c0-2.8-2.3-5.1-5.1-5.1c-2.8,0-5.1,2.3-5.1,5.1c0,2.2,1.4,4.1,3.3,4.8
				c0,0.1,0,0.1,0,0.2c0,2.1,1.7,3.8,3.8,3.8c2.1,0,3.8-1.7,3.8-3.8C302.5,55.1,302,54.2,301.3,53.5z"/>
		</g>
	</g>
</g>
<g id="레이어_2" class="st11">
	<line class="st15" x1="95.7" y1="166.7" x2="109.7" y2="171.3"/>
	<g class="st13">
		<path class="st3" d="M120.2,133.1c7.1,7.9,5.7,20.7-3.1,28.6c-8.8,7.9-21.7,7.9-28.8,0c-7.1-7.9-5.7-20.7,3.1-28.6
			C100.2,125.2,113.1,125.2,120.2,133.1z"/>
	</g>
	<g class="st13">
		<path class="st3" d="M131.9,137.3c7.1,7.9,5.7,20.7-3.1,28.6c-8.8,7.9-21.7,7.9-28.8,0c-7.1-7.9-5.7-20.7,3.1-28.6
			C111.9,129.3,124.8,129.3,131.9,137.3z"/>
		<path class="st1" d="M125.9,142.8c4.3,4.8,3.5,12.7-1.9,17.5c-5.4,4.8-13.3,4.8-17.6,0c-4.3-4.8-3.5-12.7,1.9-17.5
			C113.7,138,121.6,138,125.9,142.8z"/>
		<path class="st0" d="M120.9,147.3c2.1,2.4,1.7,6.2-0.9,8.6c-2.6,2.4-6.5,2.4-8.6,0c-2.1-2.4-1.7-6.2,0.9-8.6
			C114.9,144.9,118.8,144.9,120.9,147.3z"/>
		<path class="st1" d="M116.8,150.9c0.3,0.3,0.2,0.9-0.1,1.2c-0.4,0.3-0.9,0.3-1.2,0c-0.3-0.3-0.2-0.9,0.1-1.2
			C116,150.6,116.5,150.6,116.8,150.9z"/>
	</g>
	<line class="st15" x1="225.6" y1="150.6" x2="207.6" y2="143.9"/>
	<path class="st15" d="M243.3,116.4c6.8,7.5-3.4,17-11.8,24.5c-8.4,7.5-20.6,7.5-27.4,0c-6.8-7.5-5.4-19.7,2.9-27.2
		C215.4,106.2,236.6,108.9,243.3,116.4z"/>
	<g class="st13">
		<path class="st3" d="M247.1,118.3c6.8,7.5,5.4,19.7-2.9,27.2c-8.4,7.5-20.6,7.5-27.4,0c-1.9-2.1-3.2-4.7-3.8-7.3
			c-0.9-3.6-0.6-7.6,0.8-11.3c1.2-3.1,3.2-6.1,5.9-8.6c2.8-2.5,6-4.2,9.3-5C235.7,111.6,242.6,113.2,247.1,118.3z"/>
		<g>
			<path class="st1" d="M241.5,123.3c4.1,4.6,3.3,12.1-1.8,16.7c-5.1,4.6-12.6,4.6-16.7,0c-4.1-4.6-3.3-12.1,1.8-16.7
				C229.9,118.7,237.4,118.7,241.5,123.3z"/>
			<path class="st0" d="M236.8,127.9c2,2.3,1.6,5.9-0.9,8.2c-2.5,2.3-6.2,2.2-8.2,0c-2-2.3-1.6-5.9,0.9-8.2S234.8,125.6,236.8,127.9
				z"/>
			
				<ellipse transform="matrix(0.7444 -0.6678 0.6678 0.7444 -28.7382 188.8419)" class="st1" cx="232.3" cy="132" rx="0.9" ry="0.8"/>
		</g>
	</g>
</g>
<g id="레이어_3" class="st11">
	<path class="st16" d="M143.1,138.1c-3.5-10.7-13.9-15.3-20.3-16.5c-4.6-0.8-18.6-2.2-18.6-2.2C75,119.5,69,146.9,69,146.9l18.1,5.4
		c0,0,4-24.7,29-26.7c7.6-0.6,23,5.8,23.8,17.8l4.6-0.9L143.1,138.1z"/>
	<g class="st13">
		<path class="st3" d="M88.7,135c0,4.8-2.7,8.7-5.9,8.7c-3.3,0-5.9-3.9-5.9-8.7c0-4.8,2.7-8.7,5.9-8.7
			C86.1,126.2,88.7,130.1,88.7,135z"/>
		<ellipse class="st0" cx="78.4" cy="135" rx="5.9" ry="8.7"/>
	</g>
	<path class="st17" d="M92.5,132.9c0,0,4.9-7.6,16.3-9.7"/>
	<g class="st13">
		<path class="st6" d="M255.6,124.3l-6.7-2.6c0,0-6.4-13.4-25-12.5c0,0,9.6-4.2,20.2,0.4C253.6,113.6,255.6,124.3,255.6,124.3z"/>
		<path class="st1" d="M255.9,124.1c-0.8-11.4-15.4-17.5-22.6-16.9c-23.8,1.9-27.6,25.4-27.6,25.4l-17.2-5.2c0,0,5.7-26.1,33.5-26.1
			c0,0,13.3,1.3,17.6,2.1c6.1,1.1,16,5.5,19.3,15.6L255.9,124.1z"/>
	</g>
</g>
</svg>
